<?xml version="1.0" encoding="utf-8"?>
<!-- Generator: Adobe Illustrator 27.1.0, SVG Export Plug-In . SVG Version: 6.00 Build 0)  -->
<svg version="1.1" id="Layer_1" xmlns="http://www.w3.org/2000/svg" xmlns:xlink="http://www.w3.org/1999/xlink" x="0px" y="0px"
	 viewBox="0 0 98 35" style="enable-background:new 0 0 98 35;" xml:space="preserve">
<style type="text/css">
	.st0{fill-rule:evenodd;clip-rule:evenodd;fill:#E73C3E;}
</style>
<g id="probo-logo">
	<path id="Combined-Shape" class="st0" d="M10.3,8.5c1.8,0,3.3,0.5,4.5,1.5c1.3,1,2.2,2.2,2.7,3.8c0.5,1.5,0.8,3.1,0.8,4.7
		c0,1.6-0.2,3-0.6,4.2c-0.4,1.2-1,2.2-1.7,3c-0.7,0.8-1.5,1.4-2.5,1.8c-1,0.4-2,0.6-3.2,0.6c-1,0-2-0.1-2.8-0.4
		c-0.8-0.3-1.5-0.7-2.1-1.3v8.4H0V8.9h4.3l0.7,1.7C5.8,9.9,6.6,9.4,7.5,9C8.3,8.7,9.3,8.5,10.3,8.5z M44.4,8.3c1.5,0,2.8,0.2,4,0.7
		c1.2,0.5,2.2,1.1,3,2c0.8,0.9,1.5,1.9,1.9,3.1c0.4,1.2,0.7,2.6,0.7,4.1s-0.2,2.8-0.7,4.1c-0.4,1.2-1.1,2.3-1.9,3.1
		c-0.8,0.9-1.8,1.5-3,2c-1.2,0.5-2.5,0.7-4,0.7c-1.5,0-2.8-0.2-3.9-0.7c-1.2-0.5-2.2-1.1-3-2c-0.8-0.9-1.4-1.9-1.9-3.1
		c-0.4-1.2-0.7-2.6-0.7-4.1c0-1.5,0.2-2.8,0.7-4c0.4-1.2,1.1-2.2,1.9-3.1c0.8-0.9,1.8-1.5,3-2C41.6,8.6,43,8.3,44.4,8.3z M88,8.3
		c1.5,0,2.8,0.2,4,0.7c1.2,0.5,2.2,1.1,3,2c0.8,0.9,1.5,1.9,1.9,3.1c0.4,1.2,0.7,2.6,0.7,4.1s-0.2,2.8-0.7,4.1
		c-0.4,1.2-1.1,2.3-1.9,3.1c-0.8,0.9-1.8,1.5-3,2c-1.2,0.5-2.5,0.7-4,0.7c-1.5,0-2.8-0.2-3.9-0.7c-1.2-0.5-2.2-1.1-3-2
		c-0.8-0.9-1.4-1.9-1.9-3.1c-0.4-1.2-0.7-2.6-0.7-4.1c0-1.5,0.2-2.8,0.7-4c0.4-1.2,1.1-2.2,1.9-3.1c0.8-0.9,1.8-1.5,3-2
		C85.2,8.6,86.6,8.3,88,8.3z M63.1,0.3v9.8c0.6-0.6,1.3-1,2.1-1.3C66,8.5,67,8.3,68,8.3c1.1,0,2.2,0.2,3.2,0.6c1,0.4,1.8,1,2.5,1.8
		c0.7,0.8,1.3,1.8,1.7,3c0.4,1.2,0.6,2.6,0.6,4.2c0,1.6-0.2,3-0.6,4.2c-0.4,1.2-0.9,2.3-1.6,3.1c-0.7,0.8-1.5,1.5-2.5,1.9
		c-1,0.4-2.1,0.7-3.2,0.7c-1,0-1.9-0.2-2.8-0.6c-0.8-0.4-1.7-0.9-2.4-1.5L62,27.5h-4.3V0.3H63.1z M32.1,8.8c0.5,0,1,0,1.4,0.1v4.8
		c-0.3,0-0.8-0.1-1.5-0.1c-2,0-3.5,0.9-4.6,2.8v11.1H22V8.9h4.3l0.8,2.7c0.7-0.9,1.4-1.6,2.2-2.1C30.1,9,31.1,8.8,32.1,8.8z
		 M44.4,13.1c-1.2,0-2.2,0.4-2.9,1.3c-0.7,0.8-1,2.1-1,3.8c0,1.7,0.3,3,1,3.9c0.7,0.8,1.6,1.3,2.9,1.3c1.3,0,2.2-0.4,2.9-1.3
		c0.7-0.9,1-2.1,1-3.9c0-1.7-0.3-3-1-3.8C46.6,13.5,45.7,13.1,44.4,13.1z M88,13.1c-1.2,0-2.2,0.4-2.9,1.3c-0.7,0.8-1,2.1-1,3.8
		c0,1.7,0.3,3,1,3.9s1.6,1.3,2.9,1.3c1.3,0,2.2-0.4,2.9-1.3c0.7-0.9,1-2.1,1-3.9c0-1.7-0.3-3-1-3.8C90.2,13.5,89.3,13.1,88,13.1z
		 M9.1,13.3c-0.9,0-1.6,0.2-2.2,0.5c-0.6,0.4-1.1,0.9-1.5,1.6V21c0.9,1.5,2.1,2.2,3.5,2.2c0.9,0,1.6-0.2,2.2-0.6
		c0.6-0.4,1-1,1.2-1.7c0.2-0.8,0.3-1.6,0.3-2.5c0-1.3-0.2-2.4-0.6-3.1c-0.4-0.8-0.9-1.3-1.4-1.5C10.1,13.5,9.6,13.3,9.1,13.3z
		 M66.6,13.1c-1.4,0-2.6,0.7-3.5,2.2v5.5c0.4,0.7,0.9,1.2,1.5,1.6c0.6,0.4,1.3,0.5,2.2,0.5c0.7,0,1.4-0.2,1.9-0.6
		c0.6-0.4,1-1,1.2-1.8c0.3-0.8,0.4-1.7,0.4-2.6c0-1.3-0.2-2.3-0.6-3c-0.4-0.7-0.9-1.2-1.5-1.5C67.7,13.3,67.2,13.1,66.6,13.1z"/>
</g>
</svg>
